<?xml version="1.0" encoding="utf-8" ?><svg xmlns="http://www.w3.org/2000/svg" xmlns:xlink="http://www.w3.org/1999/xlink" width="1536" height="768" viewBox="0 0 1536 768"><path fill="#A855F7" d="M322.873 303.323C297.55 274.622 341.528 254.974 351.297 282.537C353.58 288.981 348.488 297.668 345.026 303.083C345.926 313.5 349.014 322.663 352.921 332.256C366.381 354.343 384.853 369.898 411.274 373.261C418.849 366.106 431.042 362.126 437.722 371.121C452.368 390.841 433.381 414.128 410.96 396.973C375.083 400.597 346.512 431.291 346.145 467.418C350.016 473.137 352.425 477.819 350.983 485.183C350.01 490.044 347.115 494.307 342.955 497.003C338.799 499.699 333.719 500.573 328.901 499.423C319.4 497.124 313.526 485.68 315.898 476.377C317.037 471.91 320.154 468.462 323.361 465.27C318.484 440.547 310.356 423.012 288.655 408.54C278.905 402.006 267.774 397.819 256.135 396.308C251.481 399.785 244.205 404.201 238.318 402.93C208.869 396.569 226.417 348.769 256.007 373.545C281.508 369.461 289.273 361.211 306.279 344.892C317.311 328.655 319.764 322.194 322.873 303.323ZM289.114 384.708C312.479 395.734 321.795 404.145 333.697 427.444C345.76 405.61 353.767 396.171 376.825 384.647C359.993 376.663 351.138 370.805 341.147 354.527C340.139 352.885 334.297 342.837 333.589 341.929C323.128 360.925 310.313 377.144 289.114 384.708Z"/><path fill="#2C6CF8" d="M322.873 303.323C297.55 274.622 341.528 254.974 351.297 282.537C353.58 288.981 348.488 297.668 345.026 303.083C345.926 313.5 349.014 322.663 352.921 332.256C346.177 326.101 350.895 318.239 341.377 319.142C336.169 319.637 324.97 320.474 320.134 323.481C316.397 328.117 313.007 342.714 306.279 344.892C317.311 328.655 319.764 322.194 322.873 303.323Z"/><path fill="#1E1B4B" d="M553.189 303.275C572.25 301.776 594.022 306.785 609.513 318.276C623.672 328.573 633.13 344.1 635.785 361.405C624.551 361.52 613.167 361.398 601.921 361.368C591.071 335.413 561.737 328.266 538.148 341.74C526.681 348.35 518.313 359.247 514.887 372.031C511.131 385.87 513.061 402.326 520.329 414.703C526.774 425.75 537.39 433.74 549.789 436.876C575.062 443.28 597.761 433.265 604.264 406.354C589.634 405.582 571.82 406.023 556.96 406.005C556.956 397.841 556.651 385.787 557.307 378.015C558.851 377.031 560.946 377.291 563.049 377.185C586.958 377.611 611.165 376.838 635.107 377.501C634.188 406.703 635.014 439.743 634.768 469.379L609.8 469.473C609.83 462.836 609.782 456.199 609.657 449.563C585.474 478.173 540.63 475.969 512.657 454.509C494.073 440.272 481.998 419.159 479.15 395.923C473.094 349.417 507.187 308.974 553.189 303.275Z"/><defs><linearGradient id="gradient_0" gradientUnits="userSpaceOnUse" x1="1170.4364" y1="496.8876" x2="1104.0807" y2="317.29889"><stop offset="0" stop-color="#A867F2"/><stop offset="1" stop-color="#4E60F6"/></linearGradient></defs><path fill="url(#gradient_0)" d="M1138.96 302.983C1152.43 302.573 1167.81 302.961 1181.43 302.981C1185.27 315.469 1190.86 329.144 1195.35 341.525C1203.25 364.004 1211.36 386.406 1219.7 408.726C1222.92 417.312 1239.16 465.437 1242.57 467.694L1242.58 467.872C1241.97 470.363 1242.43 470.228 1243.31 472.641C1239.32 473.313 1214.11 472.972 1207.15 473.192C1203.61 461.692 1199.11 449.222 1195.33 437.664C1190.42 437.227 1175.14 437.481 1169.66 437.538C1155.93 437.679 1140 436.9 1126.61 437.761C1122.14 448.985 1118.16 461.685 1114.3 473.237C1102.14 473.29 1089.98 473.269 1077.82 473.172C1083.55 461.387 1093.75 431.014 1098.75 417.064L1138.96 302.983ZM1137.14 405.231C1145.84 405.671 1154.05 405.191 1162.69 405.181C1169.14 405.318 1178.51 405.869 1184.65 405.148C1182.56 398.992 1162.82 338.921 1160.68 337.269C1154.17 357.456 1144.59 385.412 1137.14 405.231Z"/><path fill="#1E1B4B" d="M1008.53 347.433C1015.85 346.979 1020.9 346.867 1028.15 348.464C1043.27 351.895 1056.44 361.12 1064.83 374.157C1072.3 385.879 1077.43 403.816 1074.34 417.649L984.354 417.699C992.975 446.217 1024.13 455.349 1042.3 430.851C1048.39 430.389 1057.39 430.617 1063.69 430.587L1073.88 430.547C1071.85 436.238 1069.82 441.045 1066.47 446.124C1048.61 473.186 1009.34 479.683 982.735 461.637C968.713 452.014 959.082 437.219 955.959 420.502C952.954 403.878 956.568 386.737 966.03 372.742C976.713 357.146 990.648 350.741 1008.53 347.433ZM1021.52 395.941C1028.52 395.94 1036.27 396.11 1043.21 395.88C1035.81 379.185 1027.57 372.176 1008.2 374.441C996.612 378.866 991.599 382.569 986.336 394.388C986.135 394.839 985.944 395.294 985.765 395.754C997.682 395.998 1009.6 396.061 1021.52 395.941Z"/><path fill="#1E1B4B" d="M704.665 347.514C744.808 343.696 772.837 379.043 767.995 417.598C739.568 418.45 707.631 417.621 678.834 417.743C681.082 425.501 683.605 431.318 689.898 436.803C696.542 442.516 705.218 445.293 713.944 444.5C724.68 443.619 730.068 438.797 736.433 431.13C743.023 430.498 751.398 430.799 758.149 430.863L767.43 430.999C765.706 437.358 762.792 443.333 758.843 448.606C727.052 491.184 656.643 471.747 649.689 417.759C647.388 400.766 651.992 383.559 662.473 369.987C673.547 355.796 687.241 349.634 704.665 347.514ZM714.309 395.897C721.429 395.951 730.46 396.269 737.433 395.899C731.041 379.874 722.529 373.026 704.648 374.439C692.475 377.134 683.82 383.258 680.354 395.865L714.309 395.897Z"/><path fill="#1E1B4B" d="M841.982 348.236C843.317 348.12 844.657 348.062 845.998 348.065C858.611 348.153 870.299 352.315 879.26 361.339C897.546 379.754 894.234 401.872 894.123 425.761L894.062 470.019C883.976 470.111 873.891 470.021 863.809 469.75C863.835 456.007 866.061 399.134 861.144 389.212C858.663 384.206 854.146 380.924 848.904 379.232C840.464 376.508 832.223 377.589 824.484 381.657C822.993 382.61 821.609 383.721 820.358 384.971C810.437 394.697 812.61 413.702 812.665 426.698C812.759 441.18 812.766 455.663 812.686 470.145C802.746 469.906 792.305 470.04 782.326 470.022C782.36 431.206 783.121 388.277 781.847 349.743C790.18 349.608 804.842 349.204 812.765 350.182L812.789 364.244C821.238 353.131 828.964 350.291 841.982 348.236Z"/><path fill="#A855F7" d="M1247.25 302.958C1257.12 302.29 1274.66 302.814 1284.94 302.852C1284.96 315.358 1285.15 328.321 1284.72 340.781C1286.03 378.503 1283.8 417.239 1284.9 455.053C1285.07 460.813 1285.11 467.206 1284.96 472.964C1272.87 472.931 1259.68 473.348 1247.75 472.904C1246.24 472.753 1244.83 472.706 1243.31 472.641C1242.43 470.228 1241.97 470.363 1242.58 467.872L1242.57 467.694L1246.16 467.304C1248.23 465.255 1247.38 435.951 1247.51 430.358C1247.03 418.562 1247.44 403.656 1247.44 391.55C1247.57 362.019 1247.51 332.488 1247.25 302.958Z"/><path fill="#2C6CF8" d="M1247.25 302.958C1257.12 302.29 1274.66 302.814 1284.94 302.852C1284.96 315.358 1285.15 328.321 1284.72 340.781C1282.57 332.184 1284.37 318.663 1283.71 309.602C1283.61 308.235 1282.84 306.525 1281.48 305.778C1274.3 303.098 1256.86 304.109 1249.12 304.031C1249.21 335.445 1247.71 366.768 1248.01 398.209C1248.05 402.446 1248.26 428.048 1247.51 430.358C1247.03 418.562 1247.44 403.656 1247.44 391.55C1247.57 362.019 1247.51 332.488 1247.25 302.958Z"/><path fill="#FEFEFE" d="M1242.58 467.872C1248.26 467.933 1246.75 467.674 1247.75 472.904C1246.24 472.753 1244.83 472.706 1243.31 472.641C1242.43 470.228 1241.97 470.363 1242.58 467.872Z"/><path fill="#1E1B4B" d="M910.851 349.788C920.425 349.384 931.725 349.651 941.426 349.653C941.102 389.788 941.791 429.812 941.324 470.085C931.262 470.139 921.199 470.025 911.14 469.742C911.288 429.757 911.192 389.771 910.851 349.788Z"/><path fill="#1E1B4B" d="M921.831 298.221C931.861 295.576 942.125 301.606 944.7 311.654C947.274 321.703 941.173 331.925 931.107 334.429C921.14 336.909 911.039 330.881 908.49 320.931C905.941 310.981 911.899 300.839 921.831 298.221Z"/></svg>